<?xml version="1.0" encoding="UTF-8" standalone="no"?>
<svg
   fill="#19b4fa"
   xmlns:dc="http://purl.org/dc/elements/1.1/"
   xmlns:cc="http://creativecommons.org/ns#"
   xmlns:rdf="http://www.w3.org/1999/02/22-rdf-syntax-ns#"
   xmlns:svg="http://www.w3.org/2000/svg"
   xmlns="http://www.w3.org/2000/svg"
   xmlns:sodipodi="http://sodipodi.sourceforge.net/DTD/sodipodi-0.dtd"
   xmlns:inkscape="http://www.inkscape.org/namespaces/inkscape"
   version="1.1"
   viewBox="0 0 4523.5044 5371.3296"
   sodipodi:docname="drawing-1.svg"
   inkscape:version="0.92.3 (2405546, 2018-03-11)">
  <sodipodi:namedview
     borderopacity="1"
     objecttolerance="10"
     gridtolerance="10"
     guidetolerance="10"
     inkscape:pageopacity="0"
     inkscape:pageshadow="2"
     inkscape:window-width="1884"
     inkscape:window-height="1015"
     showgrid="false"
     inkscape:zoom="0.065760889"
     inkscape:cx="10307.232"
     inkscape:cy="2583.7529"
     inkscape:window-x="36"
     inkscape:window-y="0"
     inkscape:window-maximized="1"
     inkscape:current-layer="svg8" />
  <title>Family</title>
  <defs/>
  <metadata>
    <rdf:RDF>
      <cc:Work
         rdf:about="">
        <dc:format>image/svg+xml</dc:format>
        <dc:type
           rdf:resource="http://purl.org/dc/dcmitype/StillImage" />
        <dc:title>Family</dc:title>
        <dc:creator>
          <cc:Agent>
            <dc:title>Debashis Roy Bhowmik</dc:title>
          </cc:Agent>
        </dc:creator>
        <dc:rights>
          <cc:Agent>
            <dc:title />
          </cc:Agent>
        </dc:rights>
      </cc:Work>
    </rdf:RDF>
  </metadata>
  <g>
    <g
       transform="translate(6872.1649,208.33637)">
      <g
         transform="translate(-1638.7253,2377.0054)">
        <ellipse
           ry="491.93015"
           rx="505.22552"
           cy="-2093.4116"
           cx="-3769.4409"
           style="stroke-width:68.95404816" />
        <ellipse
           style="stroke-width:68.95404816"
           cx="-1842.1802"
           cy="-2093.4116"
           rx="505.22552"
           ry="491.93015" />
        <path
           transform="scale(0.26458333)"
           d="m -12603.752,-5609.9102 c -32.487,0.1441 -64.961,0.9667 -97.381,2.4668 h -3153.943 l -0.219,-0.01 -0.309,0.01 H -15873 v 0.4414 c -700.189,5.8941 -1320.762,323.8223 -1553.914,796.0918 -5.939,10.3819 -11.387,21.0421 -16.326,31.9922 -7.651,17.8899 -14.713,35.9059 -21.18,54.0332 -399.462,1049.5613 -2053.798,5505.04571 -2091.496,5606.57816 -54.326,106.72761 -82.763,224.32434 -83.09,343.60934 0,205.2848 83.156,402.162 231.178,547.3203 148.023,145.1583 348.785,226.7067 558.121,226.7051 253.824,-0.2777 492.023,-120.2446 640.125,-322.3926 31.067,-32.799 48.707,-55.0351 48.707,-55.0351 l 23.475,-65.3809 c 23.627,-48.8122 41.977,-99.9163 54.75,-152.4765 l 1629.121,-4537.1602 142.349,-106.6328 c 0,0 37.442,-7.4949 81.338,-12.1562 46.036,7.4927 92.496,13.5848 139.254,18.2597 45.001,27.7309 171.13,18.7681 187.777,118.6641 17.757,106.5896 -2806.878,7692.3867 -2806.878,7692.3867 h 2735.97 l -18.095,5259.2539 1.199,1.957 c -0.686,8.8447 -1.141,17.705 -1.365,26.5723 0.153,266.2815 205.537,490.0415 477.281,519.9825 l 2.703,2.201 21.316,-0.363 c 12.125,0.993 24.28,1.585 36.446,1.775 18.439,-0.19 36.856,-1.304 55.177,-3.336 l 3013.807,-51.361 53.285,-6360.6837 -2057.974,-2157.8671 c 0,0 -0.693,-1.7048 -1.098,-2.6973 -111.161,-121.0632 -172.751,-277.6822 -173.057,-440.0742 0,-175.5983 71.642,-344.0052 199.164,-468.1719 127.523,-124.16666 300.481,-193.92192 480.825,-193.92188 172.034,0.30685 337.555,64.09341 463.207,178.50586 l 1.433,0.76758 19.486,18.20703 c 1.421,1.3163 2.836,2.63858 4.245,3.9668 l 1641.412,1533.73441 2565.5642,8.8105 1529.082,-1506.41601 c 22.3865,-25.71137 46.7569,-49.72063 72.8985,-71.81836 l 11.5195,-11.34765 c 0,0 1.9776,-1.03771 4.4609,-2.32031 121.7274,-98.12189 274.7532,-151.89884 432.7813,-152.08985 180.344,1.3e-4 353.3017,69.75525 480.8242,193.92188 127.5225,124.1667 199.1639,292.5737 199.1641,468.1719 -0.1326,136.204 -43.4038,269.0539 -123.9141,380.4375 -228.4123,337.6627 -2091.1543,2191.375 -2091.1543,2191.375 l 54.2559,6354.1658 3109.1562,17.57 c 0,0 6.3564,-1.588 17.2676,-4.634 271.6377,-17.274 487.1734,-229.469 501.9121,-494.1331 0.1845,-0.5682 0.8535,-2.582 0.8535,-2.582 l 0.094,-15.8613 c 0.2003,-3.2764 0.3689,-6.5545 0.5058,-9.834 -0.092,-3.5246 -0.2199,-7.0482 -0.3847,-10.5703 l 76.3437,-12879.0059 c 0,0 149.5307,-156.8126 256.1289,-139.0508 106.5933,17.7603 248.6223,35.7366 284.1445,89.0196 35.5151,53.2845 62.6446,98.3808 62.6446,98.3808 l 12.6504,4625.0078 c 0,0 0.9189,-0.2658 1.0429,-0.3027 -1.1106,13.8028 -1.8166,27.634 -2.1172,41.4766 0,191.742 77.6704,375.6305 215.9278,511.2128 138.2573,135.5824 325.775,211.7523 521.3008,211.752 195.5254,-2e-4 383.0419,-76.1697 521.2988,-211.752 138.2568,-135.5823 215.9288,-319.4711 215.9277,-511.2128 -0.045,-17.9598 -0.7717,-35.9117 -2.1797,-53.8184 2.3072,-801.65392 -50.8787,-5712.2081 -51.4668,-5766.4746 a 1785.6644,1379.4608 0 0 0 0.8575,-16.8906 1785.6644,1379.4608 0 0 0 -1785.6641,-1379.461 1785.6644,1379.4608 0 0 0 -3.3535,0.1289 c -3.9845,-1.2378 -7.9785,-2.4617 -11.9688,-3.6914 v -2.8105 h -9.1132 -4567.961 a 1668.7719,1193.5962 0 0 0 -0.2187,-0.01 1668.7719,1193.5962 0 0 0 -0.3086,0.01 h -17.3965 c -0.017,0.046 -0.022,0.061 -0.039,0.1074 -31.8593,0.262 -63.6123,1.1926 -95.2324,2.7461 a 1668.7719,1193.5962 0 0 0 -8.4785,0.4258 c -52.5375,2.7735 -104.6887,7.3054 -156.291,13.5683 a 1668.7719,1193.5962 0 0 0 -12.4551,1.5664 c -49.6184,6.2994 -98.7194,14.1826 -147.1543,23.625 a 1668.7719,1193.5962 0 0 0 -18.0488,3.5918 c -46.4402,9.4555 -92.2415,20.3514 -137.293,32.6289 a 1668.7719,1193.5962 0 0 0 -23.9551,6.6797 c -42.7336,12.1883 -84.7527,25.64 -125.9531,40.3184 a 1668.7719,1193.5962 0 0 0 -28.2479,10.2949 c -39.079,14.5916 -77.381,30.3027 -114.809,47.1035 a 1668.7719,1193.5962 0 0 0 -31.625,14.5606 c -35.184,16.5959 -69.561,34.158 -103.023,52.6933 a 1668.7719,1193.5962 0 0 0 -33.61,19.1309 c -31.079,18.1498 -61.33,37.1432 -90.67,56.9707 a 1668.7719,1193.5962 0 0 0 -34.918,24.291 c -27.268,19.5344 -53.492,39.6803 -78.654,60.3887 a 1668.7719,1193.5962 0 0 0 -34.717,29.5195 c -23.296,20.4738 -45.589,41.454 -66.855,62.9004 a 1668.7719,1193.5962 0 0 0 -33.19,34.7539 c -19.338,21.0371 -37.717,42.4852 -55.121,64.3067 a 1668.7719,1193.5962 0 0 0 -30.48,39.9687 c -15.574,21.3816 -30.236,43.0887 -43.963,65.0918 a 1668.7719,1193.5962 0 0 0 -26.305,44.5742 c -12.021,21.5781 -23.164,43.4122 -33.412,65.4727 a 1668.7719,1193.5962 0 0 0 -20.84,48.2441 c -8.72,21.8146 -16.583,43.825 -23.564,66.0078 a 1668.7719,1193.5962 0 0 0 -14.352,50.7325 c -5.508,21.8967 -10.166,43.9375 -13.965,66.0996 a 1668.7719,1193.5962 0 0 0 -7.351,52.416 c -2.364,21.6784 -3.907,43.4522 -4.612,65.3008 -0.875,0.044 -1.751,0.073 -2.627,0.088 -1.553,-48.5052 -11.037,-92.4029 -27.105,-132.7871 -51.994,-274.0882 -235.463,-526.7531 -519.049,-714.8086 -283.586,-188.0554 -649.685,-299.8265 -1035.721,-316.2109 v -1.0098 h -28.23 c -22.947,-1.162 -45.925,-1.9844 -68.92,-2.4668 z m 2113.527,4682.50004 c 880.9704,0.17386 1594.9789,708.85825 1594.9789,1582.88672 0,874.01824 -714.0085,1582.62054 -1594.9789,1582.88674 -881.173,0.053 -1595.519,-708.6571 -1595.519,-1582.88674 0,-874.24146 714.346,-1582.92837 1595.519,-1582.88672 z"
           clip-path="none"
           mask="none"
           style="stroke:#000000;stroke-width:281.84692383;stroke-linecap:butt;stroke-linejoin:miter;stroke-miterlimit:4;stroke-dasharray:0, 3100.31622047;stroke-dashoffset:0;stroke-opacity:1" />
      </g>
    </g>
    <path
       transform="scale(0.26458334)"
       d="M 9292.791 16720.781 A 134.05349 136.44731 0 0 0 9158.8047 16855.887 L 9158.6914 16855.887 L 9158.6914 20075.281 L 9426.8086 20075.281 L 9426.8086 16857.982 A 134.05349 136.44731 0 0 0 9426.8457 16857.229 A 134.05349 136.44731 0 0 0 9426.8086 16856.162 L 9426.8086 16855.887 L 9426.7988 16855.887 A 134.05349 136.44731 0 0 0 9292.791 16720.781 z "
       style="stroke-width:200.53700256;stroke-miterlimit:4;stroke-dasharray:0, 2205.90726597;stroke-dashoffset:0" />
  </g>
</svg>
