<?xml version="1.0" encoding="UTF-8" standalone="no"?>
<svg
   fill="#19b4fa"
   xmlns:dc="http://purl.org/dc/elements/1.1/"
   xmlns:cc="http://creativecommons.org/ns#"
   xmlns:rdf="http://www.w3.org/1999/02/22-rdf-syntax-ns#"
   xmlns:svg="http://www.w3.org/2000/svg"
   xmlns="http://www.w3.org/2000/svg"
   xml:space="preserve"
   viewBox="0 0 509.99999 469.19921"
   version="1.1"><metadata><rdf:RDF><cc:Work
       rdf:about=""><dc:format>image/svg+xml</dc:format><dc:type
         rdf:resource="http://purl.org/dc/dcmitype/StillImage" /><dc:title></dc:title></cc:Work></rdf:RDF></metadata><defs/>

  <metadata>
    <rdf:RDF>
      <cc:Work
         rdf:about="">
        <dc:format>image/svg+xml</dc:format>
        <dc:type
           rdf:resource="http://purl.org/dc/dcmitype/StillImage" />
        <dc:title>Family</dc:title>
        <dc:creator>
          <cc:Agent>
            <dc:title>Debashis Roy Bhowmik</dc:title>
          </cc:Agent>
        </dc:creator>
        <dc:rights>
          <cc:Agent>
            <dc:title />
          </cc:Agent>
        </dc:rights>
      </cc:Work>
    </rdf:RDF>
  </metadata>
<g
   transform="translate(9.5e-4,-20.40094)">
	<g>
		<path
   transform="translate(806.97561,181.74664)"
   d="m -666.72656,-161.3457 c -79.05,0 -140.25,61.2 -140.25,140.249997 0,32.330976 9.66495,62.674775 27.45312,93.115234 h 66.66602 v 0.06445 h 7.24023 l 26.67578,-45.080078 c 2.94814,-4.977232 8.60589,-7.695532 14.38282,-6.716797 5.71725,0.954863 10.25998,5.334401 11.42968,11.003907 l 11.28125,54.49414 25.7168,-142.703125 c 1.20551,-6.684052 7.02472,-11.333984 13.82813,-11.333984 h 0.0547 c 6.81534,0 12.62956,4.733487 13.77539,11.441406 l 27.45508,160.1875 8.82813,-22.378906 c 2.1007,-5.371116 7.28579,-8.935547 13.05078,-8.935547 h 90.02929 v -0.04297 h 124.68165 c 17.78817,-30.440459 27.45117,-60.784258 27.45117,-93.115234 0,-79.049993 -61.2,-140.249993 -140.25,-140.249993 -43.35,0 -86.7,20.39883 -114.75,53.54882 -28.05,-33.15 -71.4,-53.54882 -114.75,-53.54882 z m 64.08398,187.828122 -24.41601,133.980468 c -1.19358,6.62437 -6.9071,9.83984 -13.62696,9.83984 -0.0597,0.0238 -0.12197,0.0215 -0.18164,0.0215 -6.64824,0 -12.40516,-2.96179 -13.7539,-9.4668 l -18.62696,-89.189451 -12.27148,21.175781 c -2.51846,4.284953 -7.12672,7.31445 -12.08008,7.31445 h -63.28125 c 38.26679,51.87574 98.43719,105.85527 173.20508,171.9961 l 35.69922,35.69922 35.70117,-35.69922 c 74.80433,-66.17307 134.99569,-120.17329 173.25977,-172.07227 h -70.97266 c -0.21271,0.009 -0.41382,0.0644 -0.62891,0.0644 h -115.00195 l -23.75391,60.01758 c -2.29167,5.84855 -8.13822,9.39367 -14.5,8.79688 -6.23049,-0.66841 -11.30468,-5.39495 -12.3789,-11.60156 z" />
	</g>
</g><g
   style="=fill-opacity:1"
   transform="matrix(11.935805,0,0,11.935805,27.48462,22.93972)">
	<g style="=fill-opacity:1">
		
	</g>
</g></svg>