<svg width="80" height="82" viewBox="0 0 80 82" fill="none" xmlns="http://www.w3.org/2000/svg">
<path d="M13.9903 35.9718L9.83216 35.9502C9.72388 35.9502 9.63725 35.8636 9.63725 35.7553V15.0298C9.63725 14.5317 9.35571 14.0769 8.92258 13.8603L4.20141 11.4997L8.92258 9.13914C9.35571 8.92258 9.63725 8.46779 9.63725 7.96968V2.77206C9.63725 2.66378 9.72388 2.57715 9.83216 2.57715H67.3092C67.4174 2.57715 67.5041 2.66378 67.5041 2.77206V32.052C67.5041 32.7667 68.0888 33.3514 68.8035 33.3514C69.5181 33.3514 70.1029 32.7667 70.1029 32.052V2.79372C70.1029 1.25609 68.8468 0 67.3092 0H9.83216C8.29453 0 7.03844 1.25609 7.03844 2.79372V7.19004L0.714672 10.3519C0.281538 10.5685 0 11.0233 0 11.5214C0 12.0195 0.281538 12.4743 0.714672 12.6909L7.03844 15.8527V35.7769C7.03844 37.3146 8.29453 38.5707 9.83216 38.5707L13.9903 38.5923C14.7049 38.5923 15.2897 38.0076 15.2897 37.2929C15.2897 36.5566 14.7049 35.9718 13.9903 35.9718Z" fill="#19B4FA"/>
<path d="M80.0002 42.6204C80.0002 38.9604 77.0116 35.9717 73.3516 35.9717H57.0874C59.9677 30.6875 61.527 24.1472 61.527 17.2603C61.527 13.6003 58.5384 10.6117 54.8784 10.6117C51.2184 10.6117 48.2298 13.6003 48.2298 17.2603C48.2298 27.5906 39.827 35.9717 29.5183 35.9717H19.1881C18.4734 35.9717 17.8887 36.5565 17.8887 37.2711V80.0649C17.8887 80.7795 18.4734 81.3643 19.1881 81.3643H29.4967C30.2114 81.3643 30.7961 80.7795 30.7961 80.0649V38.5272C41.9493 37.8559 50.8069 28.5651 50.8069 17.2387C50.8069 15.008 52.6261 13.1888 54.8567 13.1888C57.0874 13.1888 58.9065 15.008 58.9065 17.2387C58.9065 24.537 57.0657 31.4022 53.7089 36.5565C53.449 36.9463 53.4274 37.4661 53.6656 37.8775C53.9038 38.289 54.337 38.5489 54.8134 38.5489H73.3732C75.6039 38.5489 77.4231 40.3681 77.4231 42.5987C77.4231 44.8293 75.6039 46.6485 73.3732 46.6485H66.7896C66.0749 46.6485 65.4902 47.2332 65.4902 47.9479C65.4902 48.6626 66.0749 49.2473 66.7896 49.2473H71.1643C73.3949 49.2473 75.2141 51.0665 75.2141 53.2971C75.2141 55.5278 73.3949 57.3469 71.1643 57.3469H66.7896C66.0749 57.3469 65.4902 57.9317 65.4902 58.6463C65.4902 59.361 66.0749 59.9458 66.7896 59.9458H68.9769C71.2076 59.9458 73.0267 61.7649 73.0267 63.9956C73.0267 66.2262 71.2076 68.0454 68.9769 68.0454H66.7896C66.0749 68.0454 65.4902 68.6301 65.4902 69.3448C65.4902 70.0595 66.0749 70.6442 66.7896 70.6442C69.0202 70.6442 70.8394 72.4633 70.8394 74.694C70.8394 76.9246 69.0202 78.7438 66.7896 78.7438H34.6943C33.9796 78.7438 33.3949 79.3285 33.3949 80.0432C33.3949 80.7579 33.9796 81.3426 34.6943 81.3426H66.7896C70.4496 81.3426 73.4382 78.354 73.4382 74.694C73.4382 72.9181 72.7452 71.2939 71.5974 70.1028C73.958 69.0849 75.6255 66.7243 75.6255 63.9956C75.6255 62.2197 74.9325 60.5955 73.7847 59.4043C76.1453 58.3865 77.8129 56.0259 77.8129 53.2971C77.8129 51.5213 77.1199 49.897 75.972 48.7059C78.3326 47.7097 80.0002 45.3491 80.0002 42.6204ZM28.1973 78.7655H20.4875V38.5706H28.1973V78.7655Z" fill="#19B4FA"/>
<path d="M62.8693 74.8674V42.469C62.8693 41.7543 62.2846 41.1696 61.5699 41.1696C60.8552 41.1696 60.2705 41.7543 60.2705 42.469V74.8674C60.2705 75.5821 60.8552 76.1669 61.5699 76.1669C62.3062 76.1669 62.8693 75.5821 62.8693 74.8674Z" fill="#19B4FA"/>
</svg>